<mxfile host="app.diagrams.net" modified="2024-04-02T10:29:46.395Z" agent="Mozilla/5.0 (Windows NT 10.0; Win64; x64) AppleWebKit/537.36 (KHTML, like Gecko) Chrome/123.0.0.0 Safari/537.36" etag="GIyuuQE__IRyAI4rpBlg" version="24.2.1" type="github">
  <diagram id="C5RBs43oDa-KdzZeNtuy" name="Page-1">
    <mxGraphModel dx="2227" dy="753" grid="1" gridSize="10" guides="1" tooltips="1" connect="1" arrows="1" fold="1" page="1" pageScale="1" pageWidth="827" pageHeight="1169" math="0" shadow="0">
      <root>
        <mxCell id="WIyWlLk6GJQsqaUBKTNV-0" />
        <mxCell id="WIyWlLk6GJQsqaUBKTNV-1" parent="WIyWlLk6GJQsqaUBKTNV-0" />
        <mxCell id="p8ExEQtUlic7NR4eEbXT-3" value="Start" style="strokeWidth=2;html=1;shape=mxgraph.flowchart.start_1;whiteSpace=wrap;fillColor=#e1d5e7;strokeColor=#9673a6;" vertex="1" parent="WIyWlLk6GJQsqaUBKTNV-1">
          <mxGeometry x="364" y="50" width="100" height="60" as="geometry" />
        </mxCell>
        <mxCell id="p8ExEQtUlic7NR4eEbXT-22" value="" style="edgeStyle=orthogonalEdgeStyle;rounded=0;orthogonalLoop=1;jettySize=auto;html=1;" edge="1" parent="WIyWlLk6GJQsqaUBKTNV-1" source="p8ExEQtUlic7NR4eEbXT-4" target="p8ExEQtUlic7NR4eEbXT-3">
          <mxGeometry relative="1" as="geometry" />
        </mxCell>
        <mxCell id="p8ExEQtUlic7NR4eEbXT-4" value="Masukan Nama&lt;div&gt;Masukan Jenis Kelamin&lt;/div&gt;&lt;div&gt;masukan Tinggi Badan&lt;/div&gt;" style="shape=parallelogram;html=1;strokeWidth=2;perimeter=parallelogramPerimeter;whiteSpace=wrap;rounded=1;arcSize=12;size=0.23;fillColor=#dae8fc;strokeColor=#6c8ebf;" vertex="1" parent="WIyWlLk6GJQsqaUBKTNV-1">
          <mxGeometry x="314" y="160" width="200" height="90" as="geometry" />
        </mxCell>
        <mxCell id="p8ExEQtUlic7NR4eEbXT-8" value="" style="edgeStyle=orthogonalEdgeStyle;rounded=0;orthogonalLoop=1;jettySize=auto;html=1;" edge="1" parent="WIyWlLk6GJQsqaUBKTNV-1" source="p8ExEQtUlic7NR4eEbXT-5" target="p8ExEQtUlic7NR4eEbXT-7">
          <mxGeometry relative="1" as="geometry" />
        </mxCell>
        <mxCell id="p8ExEQtUlic7NR4eEbXT-18" value="Yes" style="edgeLabel;html=1;align=center;verticalAlign=middle;resizable=0;points=[];" vertex="1" connectable="0" parent="p8ExEQtUlic7NR4eEbXT-8">
          <mxGeometry x="-0.1351" y="4" relative="1" as="geometry">
            <mxPoint x="-1" y="-2" as="offset" />
          </mxGeometry>
        </mxCell>
        <mxCell id="p8ExEQtUlic7NR4eEbXT-10" value="" style="edgeStyle=orthogonalEdgeStyle;rounded=0;orthogonalLoop=1;jettySize=auto;html=1;" edge="1" parent="WIyWlLk6GJQsqaUBKTNV-1" source="p8ExEQtUlic7NR4eEbXT-5" target="p8ExEQtUlic7NR4eEbXT-9">
          <mxGeometry relative="1" as="geometry" />
        </mxCell>
        <mxCell id="p8ExEQtUlic7NR4eEbXT-19" value="No" style="edgeLabel;html=1;align=center;verticalAlign=middle;resizable=0;points=[];" vertex="1" connectable="0" parent="p8ExEQtUlic7NR4eEbXT-10">
          <mxGeometry x="-0.1567" y="-1" relative="1" as="geometry">
            <mxPoint x="1" y="-1" as="offset" />
          </mxGeometry>
        </mxCell>
        <mxCell id="p8ExEQtUlic7NR4eEbXT-5" value="Tinggi Laki-laki 170cm?" style="strokeWidth=2;html=1;shape=mxgraph.flowchart.decision;whiteSpace=wrap;fillColor=#fff2cc;strokeColor=#d6b656;" vertex="1" parent="WIyWlLk6GJQsqaUBKTNV-1">
          <mxGeometry x="130" y="340" width="110" height="110" as="geometry" />
        </mxCell>
        <mxCell id="p8ExEQtUlic7NR4eEbXT-6" value="Tinggi Perempuan 160?" style="strokeWidth=2;html=1;shape=mxgraph.flowchart.decision;whiteSpace=wrap;fillColor=#fff2cc;strokeColor=#d6b656;" vertex="1" parent="WIyWlLk6GJQsqaUBKTNV-1">
          <mxGeometry x="570" y="330" width="140" height="130" as="geometry" />
        </mxCell>
        <mxCell id="p8ExEQtUlic7NR4eEbXT-7" value="Lolos Seleksi" style="whiteSpace=wrap;html=1;strokeWidth=2;fillColor=#d5e8d4;strokeColor=#82b366;" vertex="1" parent="WIyWlLk6GJQsqaUBKTNV-1">
          <mxGeometry x="260" y="500" width="120" height="60" as="geometry" />
        </mxCell>
        <mxCell id="p8ExEQtUlic7NR4eEbXT-9" value="Tidak Lolos Seleksi" style="whiteSpace=wrap;html=1;strokeWidth=2;fillColor=#f8cecc;strokeColor=#b85450;" vertex="1" parent="WIyWlLk6GJQsqaUBKTNV-1">
          <mxGeometry y="490" width="120" height="60" as="geometry" />
        </mxCell>
        <mxCell id="p8ExEQtUlic7NR4eEbXT-11" value="Lolos Seleksi" style="whiteSpace=wrap;html=1;strokeWidth=2;fillColor=#d5e8d4;strokeColor=#82b366;" vertex="1" parent="WIyWlLk6GJQsqaUBKTNV-1">
          <mxGeometry x="720" y="490" width="130" height="70" as="geometry" />
        </mxCell>
        <mxCell id="p8ExEQtUlic7NR4eEbXT-12" value="Tidak Lolos Seleksi" style="whiteSpace=wrap;html=1;strokeWidth=2;fillColor=#f8cecc;strokeColor=#b85450;" vertex="1" parent="WIyWlLk6GJQsqaUBKTNV-1">
          <mxGeometry x="430" y="500" width="130" height="70" as="geometry" />
        </mxCell>
        <mxCell id="p8ExEQtUlic7NR4eEbXT-13" value="" style="edgeStyle=orthogonalEdgeStyle;rounded=0;orthogonalLoop=1;jettySize=auto;html=1;entryX=0.5;entryY=0;entryDx=0;entryDy=0;" edge="1" parent="WIyWlLk6GJQsqaUBKTNV-1" target="p8ExEQtUlic7NR4eEbXT-11">
          <mxGeometry relative="1" as="geometry">
            <mxPoint x="710" y="395" as="sourcePoint" />
            <mxPoint x="790" y="480" as="targetPoint" />
          </mxGeometry>
        </mxCell>
        <mxCell id="p8ExEQtUlic7NR4eEbXT-17" value="Yes" style="edgeLabel;html=1;align=center;verticalAlign=middle;resizable=0;points=[];" vertex="1" connectable="0" parent="p8ExEQtUlic7NR4eEbXT-13">
          <mxGeometry x="-0.152" y="3" relative="1" as="geometry">
            <mxPoint as="offset" />
          </mxGeometry>
        </mxCell>
        <mxCell id="p8ExEQtUlic7NR4eEbXT-14" value="" style="edgeStyle=orthogonalEdgeStyle;rounded=0;orthogonalLoop=1;jettySize=auto;html=1;entryX=0.5;entryY=0;entryDx=0;entryDy=0;" edge="1" parent="WIyWlLk6GJQsqaUBKTNV-1" target="p8ExEQtUlic7NR4eEbXT-12">
          <mxGeometry relative="1" as="geometry">
            <mxPoint x="570" y="395" as="sourcePoint" />
            <mxPoint x="500" y="490" as="targetPoint" />
          </mxGeometry>
        </mxCell>
        <mxCell id="p8ExEQtUlic7NR4eEbXT-16" value="No" style="edgeLabel;html=1;align=center;verticalAlign=middle;resizable=0;points=[];" vertex="1" connectable="0" parent="p8ExEQtUlic7NR4eEbXT-14">
          <mxGeometry x="-0.164" y="-1" relative="1" as="geometry">
            <mxPoint x="1" y="-2" as="offset" />
          </mxGeometry>
        </mxCell>
        <mxCell id="p8ExEQtUlic7NR4eEbXT-20" value="" style="edgeStyle=elbowEdgeStyle;elbow=vertical;endArrow=classic;html=1;curved=0;rounded=0;endSize=8;startSize=8;entryX=0.424;entryY=1.046;entryDx=0;entryDy=0;entryPerimeter=0;exitX=0.5;exitY=0;exitDx=0;exitDy=0;exitPerimeter=0;" edge="1" parent="WIyWlLk6GJQsqaUBKTNV-1" source="p8ExEQtUlic7NR4eEbXT-5">
          <mxGeometry width="50" height="50" relative="1" as="geometry">
            <mxPoint x="200" y="335.86" as="sourcePoint" />
            <mxPoint x="413.7999999999997" y="250.0000000000001" as="targetPoint" />
          </mxGeometry>
        </mxCell>
        <mxCell id="p8ExEQtUlic7NR4eEbXT-21" value="" style="edgeStyle=elbowEdgeStyle;elbow=vertical;endArrow=classic;html=1;curved=0;rounded=0;endSize=8;startSize=8;entryX=0.441;entryY=1.059;entryDx=0;entryDy=0;entryPerimeter=0;exitX=0.5;exitY=0;exitDx=0;exitDy=0;exitPerimeter=0;" edge="1" parent="WIyWlLk6GJQsqaUBKTNV-1" source="p8ExEQtUlic7NR4eEbXT-6">
          <mxGeometry width="50" height="50" relative="1" as="geometry">
            <mxPoint x="651.7999999999995" y="324.69" as="sourcePoint" />
            <mxPoint x="413.99999999999983" y="249.99999999999994" as="targetPoint" />
            <Array as="points">
              <mxPoint x="531.8" y="294.69" />
            </Array>
          </mxGeometry>
        </mxCell>
        <mxCell id="p8ExEQtUlic7NR4eEbXT-23" value="End" style="strokeWidth=2;html=1;shape=mxgraph.flowchart.start_1;whiteSpace=wrap;fillColor=#e1d5e7;strokeColor=#9673a6;" vertex="1" parent="WIyWlLk6GJQsqaUBKTNV-1">
          <mxGeometry x="370" y="720" width="100" height="60" as="geometry" />
        </mxCell>
        <mxCell id="p8ExEQtUlic7NR4eEbXT-24" value="" style="edgeStyle=elbowEdgeStyle;elbow=vertical;endArrow=classic;html=1;curved=0;rounded=0;endSize=8;startSize=8;exitX=0.5;exitY=1;exitDx=0;exitDy=0;exitPerimeter=0;entryX=0.5;entryY=0;entryDx=0;entryDy=0;entryPerimeter=0;" edge="1" parent="WIyWlLk6GJQsqaUBKTNV-1" source="p8ExEQtUlic7NR4eEbXT-5" target="p8ExEQtUlic7NR4eEbXT-23">
          <mxGeometry width="50" height="50" relative="1" as="geometry">
            <mxPoint x="360" y="700" as="sourcePoint" />
            <mxPoint x="410" y="650" as="targetPoint" />
          </mxGeometry>
        </mxCell>
        <mxCell id="p8ExEQtUlic7NR4eEbXT-25" value="" style="edgeStyle=elbowEdgeStyle;elbow=vertical;endArrow=classic;html=1;curved=0;rounded=0;endSize=8;startSize=8;exitX=0.5;exitY=1;exitDx=0;exitDy=0;exitPerimeter=0;entryX=0.5;entryY=0;entryDx=0;entryDy=0;entryPerimeter=0;" edge="1" parent="WIyWlLk6GJQsqaUBKTNV-1" source="p8ExEQtUlic7NR4eEbXT-6" target="p8ExEQtUlic7NR4eEbXT-23">
          <mxGeometry width="50" height="50" relative="1" as="geometry">
            <mxPoint x="360" y="700" as="sourcePoint" />
            <mxPoint x="410" y="650" as="targetPoint" />
          </mxGeometry>
        </mxCell>
      </root>
    </mxGraphModel>
  </diagram>
</mxfile>
